<svg xmlns="http://www.w3.org/2000/svg" width="1200" height="630" viewBox="0 0 1200 630" role="img" aria-labelledby="title desc">
  <title id="title">Random Card Poker</title>
  <desc id="desc">Proprietary poker-style casino table game for operators and strategic partners.</desc>
  <defs>
    <linearGradient id="felt" x1="0" x2="1" y1="0" y2="1">
      <stop offset="0" stop-color="#123f34"/>
      <stop offset="0.52" stop-color="#0b2c28"/>
      <stop offset="1" stop-color="#171313"/>
    </linearGradient>
    <linearGradient id="gold" x1="0" x2="1" y1="0" y2="1">
      <stop offset="0" stop-color="#f6d563"/>
      <stop offset="1" stop-color="#a7720d"/>
    </linearGradient>
    <filter id="shadow" x="-20%" y="-20%" width="140%" height="140%">
      <feDropShadow dx="0" dy="18" stdDeviation="16" flood-color="#000" flood-opacity="0.32"/>
    </filter>
  </defs>
  <rect width="1200" height="630" fill="url(#felt)"/>
  <path d="M0 472 C205 376 378 570 610 472 C824 382 966 476 1200 402 L1200 630 L0 630 Z" fill="#f2ead8" opacity="0.92"/>
  <g filter="url(#shadow)">
    <rect x="900" y="136" width="142" height="202" rx="16" fill="#fbfaf5"/>
    <rect x="946" y="112" width="142" height="202" rx="16" fill="#fbfaf5"/>
    <rect x="992" y="136" width="142" height="202" rx="16" fill="#fbfaf5"/>
    <text x="971" y="252" text-anchor="middle" font-family="Georgia, serif" font-size="86" font-weight="700" fill="#171313">A</text>
    <text x="1017" y="228" text-anchor="middle" font-family="Georgia, serif" font-size="86" font-weight="700" fill="#7a1731">K</text>
    <text x="1063" y="252" text-anchor="middle" font-family="Georgia, serif" font-size="86" font-weight="700" fill="#171313">Q</text>
  </g>
  <circle cx="1072" cy="170" r="88" fill="url(#gold)" filter="url(#shadow)"/>
  <text x="1072" y="156" text-anchor="middle" font-family="Arial, Helvetica, sans-serif" font-weight="800" font-size="34" fill="#161006">Bot&#243;n</text>
  <text x="1072" y="198" text-anchor="middle" font-family="Arial, Helvetica, sans-serif" font-weight="900" font-size="48" fill="#161006">D</text>
  <text x="82" y="156" font-family="Arial, Helvetica, sans-serif" font-size="30" font-weight="700" fill="#e7c95d" letter-spacing="0">PROPRIETARY CASINO TABLE GAME</text>
  <text x="82" y="260" font-family="Arial, Helvetica, sans-serif" font-size="76" font-weight="900" fill="#fff8e8">Random Card Poker</text>
  <text x="82" y="332" font-family="Arial, Helvetica, sans-serif" font-size="36" font-weight="700" fill="#f4ead5">Operator review and commercial licensing</text>
  <text x="82" y="402" font-family="Arial, Helvetica, sans-serif" font-size="28" fill="#ded2bd">Independent mathematical analysis completed by GLI.</text>
  <text x="82" y="440" font-family="Arial, Helvetica, sans-serif" font-size="28" fill="#ded2bd">Private review package available after qualification.</text>
  <rect x="82" y="494" width="220" height="58" rx="29" fill="url(#gold)"/>
  <text x="192" y="532" text-anchor="middle" font-family="Arial, Helvetica, sans-serif" font-size="22" font-weight="900" fill="#171313">Request Review</text>
</svg>
